#N canvas 0 35 1366 693 10;
#X obj 683 216 print;
#X obj 739 200 r ARDUINO;
#X obj 414 314 tgl 15 0 empty empty empty 17 7 0 10 -262144 -1 -1 0
1;
#X obj 414 335 metro 200;
#X obj 414 356 f;
#X floatatom 414 398 5 0 0 0 - - -, f 5;
#X obj 445 354 + 1;
#X floatatom 467 307 5 0 0 0 - - -, f 5;
#X obj 414 421 tabread robot;
#X obj 415 504 s ARDUINO_TEST_RESET;
#X floatatom 534 437 5 0 0 0 - - -, f 5;
#X obj 414 442 / 10;
#N canvas 0 0 450 300 (subpatch) 0;
#X array robot 10 float 3 black #000000;
#A 0 -0.0142864 0.214285 0.371431 9.39332e-06 0.614305 -0.42858 0.457151
-0.342862 0.314278 -0.0714426;
#X coords 0 1 9 -1 200 140 1;
#X restore 704 348 graph;
#X floatatom 414 463 5 0 0 0 - - -, f 5;
#X obj 414 377 % 10;
#X obj 739 247 cycle~ 250;
#X obj 716 290 output~;
#X obj 739 221 * 2500;
#N canvas 146 163 525 433 serin 0;
#X obj 180 61 cnv 15 15 15 empty \$0-number-canvas 0 4 8 0 14 -233017
-1 0;
#X obj 200 225 s \$0-number-canvas;
#X obj 60 61 hradio 15 1 1 8 empty empty empty 0 -6 0 8 -225271 -1
-1 0;
#X obj 60 13 inlet;
#X msg 200 202 label \$1;
#X obj 200 180 makefilename %d;
#X obj 59 108 int;
#X msg 59 206 open \$1;
#X obj 59 377 outlet;
#X msg 201 306 set \$1 \$2;
#X obj 59 266 trigger bang anything;
#X obj 201 286 list;
#X obj 383 383 outlet;
#X obj 384 22 netreceive 34567;
#X obj 477 43 tgl 15 0 empty empty empty 0 -6 0 10 -262144 -1 -1 0
1;
#X obj 384 41 bng 15 250 50 0 empty empty empty 0 -6 0 10 -262144 -1
-1;
#X obj 187 24 delay 15000;
#X text 345 379 close;
#X text 209 4 for open/close automation in Makefile;
#X obj 184 95 bang;
#X obj 184 137 send ARDUINO_TEST_RESET;
#X msg 184 116 set 0;
#X connect 2 0 6 0;
#X connect 2 0 19 0;
#X connect 3 0 2 0;
#X connect 4 0 1 0;
#X connect 5 0 4 0;
#X connect 6 0 5 0;
#X connect 6 0 7 0;
#X connect 7 0 10 0;
#X connect 9 0 8 0;
#X connect 10 0 8 0;
#X connect 10 1 11 0;
#X connect 11 0 9 0;
#X connect 13 0 15 0;
#X connect 13 1 14 0;
#X connect 15 0 16 0;
#X connect 15 0 12 0;
#X connect 16 0 2 0;
#X connect 19 0 21 0;
#X connect 21 0 20 0;
#X coords 0 -1 1 1 136 17 1 60 60;
#X restore 217 120 pd serin;
#X text 214 102 serial port #;
#X msg 277 143 close;
#X obj 431 200 hsl 150 17 0 1 0 0 ARDUINO ARDUINO_TEST_RESET analog_output_(0-1)
20 9 1 10 -225271 -1 -1 0 0;
#X obj 377 162 hradio 15 1 0 14 empty empty empty 0 -6 0 8 -176124
-1 -1 0;
#X text 485 148 7;
#X text 379 148 0;
#X text 526 148 10;
#X text 572 148 13;
#X text 437 148 4;
#X text 408 148 2;
#X text 453 148 5;
#X text 468 148 6;
#X text 423 148 3;
#X text 499 148 8;
#X text 516 148 9;
#X text 542 148 11;
#X text 557 148 12;
#X text 394 148 1;
#X msg 246 176 info;
#X msg 246 196 version;
#X msg 246 236 devices;
#X msg 246 216 firmware;
#N canvas 72 104 423 503 analog 0;
#X obj 38 10 inlet;
#X obj 131 10 inlet;
#X obj 38 259 pack float float;
#X obj 192 113 route float symbol;
#X obj 188 259 pack float symbol;
#X text 78 11 pin#;
#X text 179 10 PWM value or "off";
#X obj 39 217 cyclone/gate 2;
#X msg 191 153 1;
#X msg 252 153 2;
#X obj 131 34 list;
#X obj 131 113 float;
#X obj 131 67 trigger bang anything;
#X obj 37 427 outlet;
#X obj 37 356 trigger bang anything;
#X obj 179 376 list;
#X msg 179 396 set \$1 \$2 \$3;
#X msg 37 308 analog \$1 \$2;
#X connect 0 0 11 0;
#X connect 1 0 10 0;
#X connect 2 0 17 0;
#X connect 3 0 8 0;
#X connect 3 0 2 1;
#X connect 3 1 9 0;
#X connect 3 1 4 1;
#X connect 4 0 17 0;
#X connect 7 0 2 0;
#X connect 7 1 4 0;
#X connect 8 0 7 0;
#X connect 9 0 7 0;
#X connect 10 0 12 0;
#X connect 11 0 7 1;
#X connect 12 0 11 0;
#X connect 12 1 3 0;
#X connect 14 0 13 0;
#X connect 14 1 15 0;
#X connect 15 0 16 0;
#X connect 16 0 13 0;
#X connect 17 0 14 0;
#X restore 406 246 pd analog;
#X msg 220 143 open 0;
#X text 382 180 switch pin to 'pwm' or 'servo' first;
#X msg 406 268 analog 9 0.4;
#X msg 258 269 pinMode 23 servo;
#X obj 246 336 arduino 0;
#X floatatom 535 256 5 0 0 0 - - -, f 5;
#X text 375 132 pin Number;
#X connect 1 0 0 0;
#X connect 1 0 17 0;
#X connect 2 0 3 0;
#X connect 3 0 4 0;
#X connect 4 0 6 0;
#X connect 4 0 14 0;
#X connect 5 0 8 0;
#X connect 6 0 4 1;
#X connect 7 0 3 1;
#X connect 8 0 11 0;
#X connect 10 0 11 1;
#X connect 11 0 13 0;
#X connect 13 0 9 0;
#X connect 14 0 5 0;
#X connect 15 0 16 1;
#X connect 15 0 16 0;
#X connect 17 0 15 0;
#X connect 18 0 42 0;
#X connect 18 1 20 0;
#X connect 20 0 46 0;
#X connect 21 0 41 1;
#X connect 21 0 47 0;
#X connect 22 0 41 0;
#X connect 37 0 46 0;
#X connect 38 0 46 0;
#X connect 39 0 46 0;
#X connect 40 0 46 0;
#X connect 41 0 44 0;
#X connect 42 0 46 0;
#X connect 44 0 46 0;
#X connect 45 0 46 0;
